# xmcd
#
# Track frame offsets:
#	150
#	11240
#	24027
#	39920
#	53820
#	66102
#	78432
#	92300
#	105295
#	119690
#	132612
#	145942
#	161455
#	177090
#	191415
#	203140
#	215832
#	232427
#	243075
#	257840
#	270960
#	284620
#	296690
#	310207
#
# Disc length: 4294 seconds
#
# Revision: 0
# Processed by: cddbd v1.5.2PL0 Copyright (c) Steve Scherf et al.
# Submitted via: SynApp - FreeCDDB Version: 2.4
#
DISCID=5910c418
DTITLE=Sampler - 10 Jahre Musikantenstadl
DYEAR=1991
DGENRE=Schlager
TTITLE0=Wolfgang Lindner and Stadlmusikanten - Trompetenecho
TTITLE1=Karl Moik - Ja, Heute woll'n wir Feiern
TTITLE2=Kastelruther Spatzen - Wenn Berge Träumen
TTITLE3=Andy and Bernd - Bussi Bussi
TTITLE4=Menskes Chöre - Heut ' ist ein Feiertag für mich
TTITLE5=Edith Prock - Dank' schön D'bei mir bist
TTITLE6=Marianne and Michael - Wann fangt denn endlich d' Musi an
TTITLE7=Stefan Mross - Heimwehmelodie
TTITLE8=Golden gate Quartett - Schwarzbraun ist die Haselnuss
TTITLE9=Patrick Lindner - Und wenns Nacht wird gibts a Busserl
TTITLE10=Truck Stop - Arizona Arizona
TTITLE11=Nockalm Quintett - Aus Tränen wird ein Schmetterling
TTITLE12=Zillertaler Schürzenjäger - Zillertaler Hochzeitsmarsch
TTITLE13=Vico Torriani - Ich könnt ohne Berge nicht Leben
TTITLE14=Original Naabtal Duo - Patrona Bavarie
TTITLE15=Uschi Bauer - Freu' Dich Deines Lebens
TTITLE16=Kirmesmusikanten - Kalakolschik
TTITLE17=Peter Hinnen - Ich bin der König der Berge
TTITLE18=Piet Knarren - Ich bin der König der Berge
TTITLE19=Karl Moik - Das Zipferl vom Glück
TTITLE20=Alpentrio Tirol - Da drob'n auf'm Berg steht a Kircherl
TTITLE21=Fred Bertelmann - Guten Tag Musik
TTITLE22=Andy Borg and Alexandra - Jedes Bäumerl wird ein Baum
TTITLE23=Karl Moik - Servus ,Pfüat Gott und auf Wiedersehen
EXTD=
EXTT0=
EXTT1=
EXTT2=
EXTT3=
EXTT4=
EXTT5=
EXTT6=
EXTT7=
EXTT8=
EXTT9=
EXTT10=
EXTT11=
EXTT12=
EXTT13=
EXTT14=
EXTT15=
EXTT16=
EXTT17=
EXTT18=
EXTT19=
EXTT20=
EXTT21=
EXTT22=
EXTT23=
PLAYORDER=
